<?xml version="1.0" standalone="no"?>
<!DOCTYPE svg PUBLIC "-//W3C//DTD SVG 20010904//EN"
 "http://www.w3.org/TR/2001/REC-SVG-20010904/DTD/svg10.dtd">
<svg version="1.0" xmlns="http://www.w3.org/2000/svg"
 width="500.000000pt" height="500.000000pt" viewBox="0 0 500.000000 500.000000"
 preserveAspectRatio="xMidYMid meet">

<g transform="translate(0.000000,500.000000) scale(0.100000,-0.100000)"
fill="#000000" stroke="none">
<path d="M2443 4895 c-32 -14 -38 -26 -33 -70 3 -26 -1 -23 72 -48 54 -19 63
-26 66 -49 6 -53 -80 -63 -112 -12 -24 35 -36 30 -36 -16 0 -28 4 -40 14 -40
8 0 16 5 18 11 3 9 9 9 25 0 56 -30 123 1 123 57 0 35 -25 60 -71 68 -38 7
-79 30 -79 44 0 17 31 40 54 40 13 0 35 -9 49 -20 33 -26 37 -25 37 10 0 17
-4 30 -10 30 -5 0 -10 -4 -10 -9 0 -6 -16 -3 -35 5 -40 17 -32 17 -72 -1z"/>
<path d="M2300 4891 c-20 -6 -27 -18 -40 -71 l-17 -65 -32 63 c-28 56 -35 63
-58 60 -28 -3 -45 -28 -20 -28 11 0 15 -22 20 -92 4 -56 2 -94 -3 -96 -25 -9
-6 -22 30 -22 29 0 40 4 40 15 0 10 -7 15 -17 13 -16 -3 -19 8 -24 77 -3 44
-5 82 -3 84 2 2 14 -21 27 -51 39 -87 54 -85 78 12 l13 55 7 -35 c18 -91 19
-130 4 -130 -8 0 -15 -7 -15 -15 0 -13 7 -15 38 -9 46 8 49 11 30 27 -21 16
-42 178 -25 189 19 12 -5 26 -33 19z"/>
<path d="M2691 4863 c-54 -54 -53 -156 2 -197 32 -24 106 -27 131 -6 23 18 10
31 -20 20 -78 -30 -129 10 -121 93 5 59 32 90 77 89 38 -1 58 -16 62 -45 5
-37 23 -24 26 19 3 38 1 42 -20 43 -13 0 -42 3 -65 7 -38 5 -46 3 -72 -23z"/>
<path d="M2003 4853 c-20 -7 -15 -23 7 -23 14 0 21 -9 25 -37 4 -21 11 -54 16
-73 12 -47 12 -47 -11 -70 -27 -27 -66 -26 -84 3 -8 12 -20 50 -27 85 -11 58
-10 64 7 77 28 20 11 28 -35 15 -39 -10 -57 -30 -27 -30 10 0 20 -25 31 -77
10 -43 26 -87 36 -97 23 -25 79 -25 116 -1 25 17 25 19 18 84 -5 36 -9 85 -9
109 0 38 -3 42 -26 41 -14 0 -31 -3 -37 -6z"/>
<path d="M2920 4851 c0 -6 7 -11 15 -11 19 0 19 -6 -1 -107 -14 -68 -20 -83
-35 -83 -18 0 -28 -20 -11 -20 4 0 24 -4 45 -9 39 -9 66 6 28 16 -17 4 -20 11
-15 32 10 46 13 51 32 51 26 0 40 -19 55 -70 12 -42 39 -71 53 -57 4 4 1 15
-8 24 -12 15 -42 96 -35 97 13 4 43 26 50 38 17 27 -1 68 -37 83 -47 20 -136
30 -136 16z m115 -35 c27 -12 35 -21 35 -40 0 -31 -20 -43 -65 -38 -37 4 -42
18 -29 70 7 26 13 27 59 8z"/>
<path d="M1770 4791 c0 -5 -13 -9 -28 -9 -65 2 -107 -48 -99 -118 9 -81 64
-132 130 -120 43 8 94 47 83 65 -5 8 -16 4 -38 -14 -65 -55 -137 -19 -146 74
-3 40 -1 52 17 70 27 27 77 28 93 1 15 -24 43 -27 34 -4 -3 9 -9 27 -12 40 -6
23 -34 35 -34 15z"/>
<path d="M3210 4786 c0 -8 11 -17 25 -20 31 -8 31 -13 -1 -109 l-26 -78 -34 7
c-57 11 -39 -13 28 -35 34 -12 68 -21 75 -21 23 0 14 19 -12 26 -31 8 -31 14
0 113 25 79 26 80 52 70 18 -6 30 -6 36 0 11 11 14 10 -77 41 -70 24 -66 23
-66 6z"/>
<path d="M3430 4711 c0 -5 7 -14 15 -18 13 -8 10 -20 -19 -88 -29 -68 -39 -81
-62 -85 -35 -6 -21 -19 63 -54 49 -20 68 -24 88 -16 35 13 52 52 37 85 -7 15
-8 25 -2 25 5 0 17 11 26 25 13 21 15 31 6 50 -15 33 -152 102 -152 76z m100
-56 c17 -9 30 -23 30 -33 0 -39 -48 -55 -85 -28 -16 12 -17 17 -6 45 15 35 21
37 61 16z m-39 -96 c33 -17 40 -24 37 -46 -5 -46 -53 -56 -101 -20 -18 12 -18
14 -1 50 10 20 19 37 21 37 2 0 22 -9 44 -21z"/>
<path d="M1413 4663 c-52 -25 -72 -50 -32 -40 18 5 26 -5 55 -69 35 -78 41
-104 24 -104 -5 0 -10 -7 -10 -15 0 -19 3 -19 50 5 43 22 53 41 19 37 -14 -1
-24 7 -34 31 -14 31 -13 33 10 44 22 10 31 7 69 -20 48 -35 86 -42 86 -16 0
10 -6 14 -14 11 -8 -3 -29 5 -46 18 -18 14 -37 26 -43 28 -6 2 -3 14 7 29 14
22 15 31 5 50 -7 13 -17 26 -23 30 -21 14 -71 7 -123 -19z m111 -9 c23 -22 20
-40 -10 -63 -36 -28 -51 -26 -69 9 -21 40 -19 47 13 58 39 15 49 14 66 -4z"/>
<path d="M2200 4605 c-520 -75 -966 -294 -1325 -649 -706 -700 -886 -1764
-450 -2661 307 -631 906 -1098 1595 -1244 166 -35 250 -42 490 -42 253 1 372
14 573 65 748 190 1376 783 1616 1525 33 103 72 270 92 396 20 127 18 525 -4
660 -102 627 -425 1158 -928 1528 -283 207 -625 350 -989 413 -131 22 -540 28
-670 9z m622 -105 c415 -64 775 -225 1092 -489 l80 -66 -747 -3 c-411 -1
-1083 -1 -1494 0 l-748 3 75 63 c288 241 665 417 1034 482 159 27 151 27 376
28 159 1 233 -3 332 -18z m1216 -2180 l2 -1520 -1535 0 -1535 0 0 1523 0 1522
1532 -2 1533 -3 3 -1520z m-3170 -757 l-3 -747 -76 95 c-387 479 -554 1058
-483 1668 47 410 233 840 496 1151 l63 75 3 -748 c1 -411 1 -1083 0 -1494z
m3355 2135 c415 -518 576 -1188 441 -1838 -79 -379 -259 -738 -516 -1024 -4
-6 -8 342 -8 773 0 483 4 780 9 776 6 -3 6 7 0 27 -9 33 -14 1378 -4 1378 2 0
38 -42 78 -92z m-1651 -3031 c2 -33 7 -42 23 -44 16 -1 16 -1 3 3 -13 4 -18
16 -18 45 0 38 1 39 35 39 19 0 35 -5 35 -11 0 -8 4 -8 14 0 9 8 198 10 687 9
l674 -3 -100 -83 c-365 -305 -789 -477 -1266 -513 -591 -45 -1206 165 -1639
559 l-45 41 797 0 797 0 3 -42z"/>
<path d="M2207 4043 c-4 -3 -7 -23 -7 -44 0 -20 -6 -40 -12 -42 -7 -3 3 -5 22
-5 19 0 27 2 18 5 -13 3 -18 15 -18 43 0 28 5 40 18 43 14 4 14 5 1 6 -9 0
-19 -2 -22 -6z"/>
<path d="M2598 4043 c19 -8 14 -32 -6 -26 -10 2 -25 -3 -32 -12 -19 -23 -1
-50 36 -52 29 -1 29 -1 26 48 -3 38 -8 49 -20 48 -11 0 -12 -2 -4 -6z m10 -56
c4 -20 -25 -34 -40 -19 -15 15 -1 44 19 40 10 -2 19 -11 21 -21z"/>
<path d="M2279 4012 c6 -2 11 -13 12 -25 0 -21 1 -21 8 -3 4 11 16 23 27 27
13 4 6 6 -20 6 -21 -1 -34 -3 -27 -5z"/>
<path d="M2374 4006 c-11 -28 0 -51 26 -53 22 -1 22 -1 3 4 -30 6 -33 53 -4
53 11 0 22 -5 24 -10 3 -6 4 -5 3 2 -4 19 -45 22 -52 4z"/>
<path d="M2464 4006 c-11 -28 1 -51 26 -53 22 -1 22 -1 3 4 -25 5 -30 18 -10
26 10 4 10 6 0 6 -7 1 -13 6 -13 11 0 14 33 12 50 -2 12 -11 12 -10 1 5 -16
21 -50 22 -57 3z"/>
<path d="M2654 4006 c-3 -8 -4 -23 -1 -33 3 -11 5 -8 6 10 1 23 5 28 23 25 31
-4 35 -36 6 -48 -17 -7 -18 -9 -4 -7 28 3 43 32 27 51 -17 20 -50 21 -57 2z"/>
<path d="M2735 3985 c0 -19 5 -35 10 -35 7 0 9 15 7 35 -2 19 -7 35 -11 35 -3
0 -6 -16 -6 -35z"/>
<path d="M2768 4008 c7 -7 16 -7 28 0 14 8 13 10 -10 10 -18 0 -24 -4 -18 -10z"/>
<path d="M2283 3953 c9 -2 23 -2 30 0 6 3 -1 5 -18 5 -16 0 -22 -2 -12 -5z"/>
<path d="M2140 3220 c0 -5 5 -10 10 -10 6 0 10 -38 10 -95 0 -76 -3 -97 -15
-101 -28 -11 -15 -24 24 -24 44 0 65 18 32 27 -19 5 -21 12 -21 86 0 89 7 90
36 9 12 -34 23 -52 32 -50 8 2 25 30 37 63 l24 60 1 -55 c1 -30 3 -67 4 -82 2
-19 -3 -28 -16 -31 -33 -9 -19 -27 21 -27 42 0 64 16 37 26 -13 5 -16 24 -16
100 0 56 4 94 10 94 6 0 10 5 10 11 0 6 -14 9 -32 7 -30 -3 -35 -8 -53 -60
-11 -32 -22 -58 -26 -58 -3 0 -16 27 -28 60 -20 55 -25 60 -52 60 -16 0 -29
-4 -29 -10z"/>
<path d="M2420 3221 c0 -6 12 -11 26 -11 17 0 25 -5 22 -12 -3 -7 -18 -49 -33
-93 -16 -44 -35 -84 -42 -88 -26 -16 -12 -27 32 -27 46 0 60 15 26 28 -14 5
-17 12 -10 30 7 19 16 22 59 22 43 0 52 -3 59 -22 7 -18 4 -25 -10 -30 -34
-13 -20 -28 26 -28 33 0 45 4 45 15 0 8 -5 14 -11 13 -6 -2 -27 44 -48 102
l-38 105 -51 3 c-32 2 -52 -1 -52 -7z m103 -68 c9 -27 17 -51 17 -55 0 -5 -18
-8 -40 -8 -22 0 -40 3 -40 6 0 14 35 104 40 104 3 0 14 -21 23 -47z"/>
<path d="M2640 3220 c0 -5 7 -10 15 -10 12 0 15 -17 15 -95 0 -79 -3 -96 -17
-104 -17 -9 -17 -10 -1 -16 24 -9 84 -2 80 10 -2 6 -10 9 -18 9 -11 -2 -14 15
-14 84 0 99 -2 100 69 -31 24 -43 48 -76 54 -74 8 2 13 41 15 110 1 60 7 107
12 107 6 0 10 5 10 10 0 6 -20 10 -45 10 -25 0 -45 -4 -45 -10 0 -5 9 -10 20
-10 18 0 20 -7 20 -75 0 -41 -2 -75 -5 -75 -2 0 -25 38 -51 85 -45 80 -50 85
-81 85 -18 0 -33 -4 -33 -10z"/>
<path d="M825 2721 c-25 -5 -30 -11 -32 -36 -1 -28 2 -30 33 -30 19 0 34 5 34
10 0 6 -12 11 -27 10 -19 0 -29 6 -31 19 -3 16 1 18 27 14 21 -3 31 0 31 9 0
7 -1 12 -2 12 -2 -1 -16 -4 -33 -8z"/>
<path d="M800 2616 c-27 -33 18 -72 48 -42 13 13 14 20 6 34 -15 23 -38 26
-54 8z m48 -19 c4 -20 -25 -34 -40 -19 -15 15 -1 44 19 40 10 -2 19 -11 21
-21z"/>
<path d="M850 2525 c0 -10 -10 -15 -30 -15 -22 0 -30 -5 -29 -17 0 -11 3 -13
6 -5 7 19 51 15 56 -5 3 -10 5 -1 6 20 0 20 -1 37 -4 37 -3 0 -5 -7 -5 -15z"/>
<path d="M850 2417 c0 -11 -12 -17 -42 -20 l-43 -4 43 -1 c30 -1 44 2 49 13 3
9 3 19 -1 22 -3 4 -6 -1 -6 -10z"/>
<path d="M825 2341 c-22 -4 -30 -12 -31 -29 -1 -18 -1 -19 3 -2 6 25 46 21 52
-5 2 -13 -1 -16 -13 -12 -9 4 -16 2 -16 -4 0 -6 8 -9 18 -7 12 2 17 13 17 36
1 17 1 31 0 31 0 -1 -13 -4 -30 -8z"/>
<path d="M850 2236 c0 -8 -4 -16 -9 -18 -5 -1 -3 -9 5 -16 12 -11 14 -8 14 18
0 16 -2 30 -5 30 -3 0 -5 -6 -5 -14z"/>
<path d="M761 2204 c0 -11 3 -14 6 -6 3 7 2 16 -1 19 -3 4 -6 -2 -5 -13z"/>
<path d="M802 2148 c-19 -19 -14 -46 9 -53 30 -10 58 19 43 43 -14 22 -36 26
-52 10z m46 -21 c4 -20 -25 -34 -40 -19 -15 15 -1 44 19 40 10 -2 19 -11 21
-21z"/>
<path d="M792 2033 c2 -14 10 -28 18 -30 12 -4 13 -3 1 5 -8 6 -12 19 -8 31 3
12 1 21 -5 21 -5 0 -8 -12 -6 -27z"/>
<path d="M824 2045 c-4 -9 -4 -19 0 -22 3 -4 6 1 6 10 0 21 17 22 23 2 4 -12
5 -11 3 1 -2 23 -24 30 -32 9z"/>
<path d="M850 1955 c0 -10 -10 -15 -30 -15 -22 0 -30 -5 -29 -17 0 -11 3 -13
6 -5 2 6 15 12 28 12 13 0 26 -6 28 -12 3 -7 6 2 6 20 1 17 -1 32 -4 32 -3 0
-5 -7 -5 -15z"/>
<path d="M4170 3003 c0 -7 7 -10 15 -7 20 8 53 -5 38 -14 -8 -5 -8 -12 1 -24
11 -15 13 -13 13 20 0 35 -2 37 -34 37 -19 0 -33 -5 -33 -12z"/>
<path d="M4174 2896 c-3 -8 -4 -23 -1 -33 3 -12 5 -8 6 10 1 30 17 37 24 10 4
-17 5 -17 6 0 0 9 6 17 11 17 14 0 12 -33 -2 -50 -11 -12 -10 -12 5 0 27 20
18 54 -16 58 -17 2 -29 -2 -33 -12z"/>
<path d="M4176 2812 c-8 -13 -4 -72 5 -66 5 3 6 19 2 36 -5 27 -4 30 11 25 10
-4 15 -3 11 3 -7 12 -22 13 -29 2z"/>
<path d="M4228 2785 c-3 -14 -1 -25 3 -25 5 0 9 11 9 25 0 14 -2 25 -4 25 -2
0 -6 -11 -8 -25z"/>
<path d="M4201 2764 c0 -11 3 -14 6 -6 3 7 2 16 -1 19 -3 4 -6 -2 -5 -13z"/>
<path d="M4170 2715 c0 -6 12 -11 27 -10 19 0 29 -6 31 -19 3 -16 -1 -18 -27
-14 -20 3 -31 0 -31 -7 0 -9 10 -10 33 -6 27 6 32 11 34 36 1 28 -2 30 -33 30
-19 0 -34 -5 -34 -10z"/>
<path d="M4172 2595 c0 -22 2 -32 5 -22 3 11 14 17 34 17 21 0 29 5 28 18 0
10 -3 12 -6 5 -7 -20 -51 -16 -56 5 -3 9 -5 -1 -5 -23z"/>
<path d="M4170 2525 c0 -6 12 -11 27 -10 19 0 29 -6 31 -19 3 -16 -1 -18 -27
-14 -20 3 -31 0 -31 -7 0 -9 10 -10 33 -6 27 6 32 11 34 36 1 28 -2 30 -33 30
-19 0 -34 -5 -34 -10z"/>
<path d="M4182 2428 c-6 -6 -12 -17 -12 -22 0 -6 5 -3 11 7 5 9 19 17 31 17
16 0 19 -5 16 -25 -3 -14 -2 -27 2 -30 4 -2 7 10 6 28 -1 24 -6 33 -21 35 -11
1 -26 -3 -33 -10z"/>
<path d="M4172 2310 c0 -19 2 -27 5 -17 2 9 2 25 0 35 -3 9 -5 1 -5 -18z"/>
<path d="M4261 2324 c0 -11 3 -14 6 -6 3 7 2 16 -1 19 -3 4 -6 -2 -5 -13z"/>
<path d="M4203 2313 c9 -2 25 -2 35 0 9 3 1 5 -18 5 -19 0 -27 -2 -17 -5z"/>
<path d="M4174 2236 c-3 -8 -4 -23 -1 -33 3 -12 5 -8 6 10 1 28 15 37 24 15 4
-10 6 -10 6 0 2 20 21 14 21 -7 0 -23 -16 -36 -23 -21 -4 7 -5 6 -3 0 1 -7 5
-12 10 -13 14 -3 30 29 23 47 -8 20 -56 21 -63 2z"/>
<path d="M4172 2123 c3 -31 32 -39 34 -10 1 12 1 13 -3 2 -8 -25 -26 -17 -21
10 3 14 1 25 -4 25 -5 0 -8 -12 -6 -27z"/>
<path d="M4216 2142 c7 -4 14 -18 17 -32 4 -21 4 -20 6 8 1 24 -3 32 -16 32
-12 0 -14 -3 -7 -8z"/>
<path d="M4219 2052 c8 -6 12 -19 8 -31 -3 -12 -1 -21 5 -21 15 0 5 53 -12 57
-12 4 -13 3 -1 -5z"/>
<path d="M4174 2020 c1 -8 9 -16 19 -18 12 -3 17 3 16 20 -1 17 -3 18 -6 6 -5
-21 -20 -24 -26 -5 -2 7 -3 6 -3 -3z"/>
<path d="M4170 1954 c0 -6 13 -9 30 -6 42 6 45 17 4 17 -19 0 -34 -5 -34 -11z"/>
<path d="M4226 1925 c-3 -8 -1 -15 4 -15 6 0 10 7 10 15 0 8 -2 15 -4 15 -2 0
-6 -7 -10 -15z"/>
<path d="M4174 1856 c-3 -8 -4 -21 -1 -28 3 -7 6 -3 6 10 1 30 51 33 51 3 0
-11 -7 -22 -15 -24 -11 -4 -10 -4 2 -3 12 1 18 10 18 26 0 20 -6 26 -28 28
-17 2 -29 -2 -33 -12z"/>
<path d="M4172 1753 c-2 -26 14 -46 30 -37 4 3 8 14 8 24 0 10 5 22 11 26 8 5
10 -1 7 -20 -3 -14 -1 -26 3 -26 10 0 12 44 2 53 -10 11 -33 -13 -33 -35 0
-11 -4 -16 -11 -12 -6 3 -8 17 -5 30 4 13 3 24 -2 24 -4 0 -9 -12 -10 -27z"/>
<path d="M4172 1653 c3 -31 32 -39 34 -10 1 12 1 13 -3 2 -8 -25 -26 -17 -21
10 3 14 1 25 -4 25 -5 0 -8 -12 -6 -27z"/>
<path d="M4219 1672 c8 -6 12 -19 8 -31 -3 -12 -1 -21 5 -21 15 0 5 53 -12 57
-12 4 -13 3 -1 -5z"/>
<path d="M2274 676 c-3 -8 -4 -23 -1 -33 3 -11 5 -7 6 11 1 25 4 28 26 24 14
-3 27 -2 30 1 2 4 -10 8 -26 9 -18 1 -32 -3 -35 -12z"/>
<path d="M2374 676 c-11 -30 0 -51 29 -52 25 -1 25 -1 2 3 -31 5 -33 21 -2 25
12 2 22 10 22 18 0 20 -43 26 -51 6z m46 -6 c0 -5 -9 -10 -20 -10 -11 0 -20 5
-20 10 0 6 9 10 20 10 11 0 20 -4 20 -10z"/>
<path d="M2488 683 c22 -4 30 -18 13 -25 -4 -1 0 -11 9 -21 17 -17 17 -17 11
15 -5 26 -12 33 -31 35 -23 1 -23 1 -2 -4z"/>
<path d="M2660 668 c-10 -21 -10 -21 3 -5 23 27 40 21 35 -13 -3 -19 0 -30 7
-30 19 0 2 64 -17 68 -10 2 -21 -7 -28 -20z"/>
<path d="M2460 640 c0 -14 6 -20 23 -19 18 1 18 2 4 6 -11 3 -16 11 -13 19 3
8 1 14 -4 14 -6 0 -10 -9 -10 -20z"/>
<path d="M2320 641 c0 -6 4 -13 10 -16 6 -3 7 1 4 9 -7 18 -14 21 -14 7z"/>
<path d="M2645 630 c-3 -5 1 -10 10 -10 9 0 13 5 10 10 -3 6 -8 10 -10 10 -2
0 -7 -4 -10 -10z"/>
<path d="M3676 4601 c-4 -5 0 -13 8 -18 22 -12 -72 -175 -96 -167 -10 3 -18 1
-18 -5 0 -11 147 -101 166 -101 9 0 18 13 42 63 9 17 -28 5 -38 -13 -11 -20
-12 -20 -61 6 -27 15 -49 30 -49 33 0 3 9 21 20 38 18 29 22 32 44 22 16 -8
22 -17 19 -30 -3 -10 0 -19 6 -19 15 0 47 68 36 77 -4 5 -10 2 -12 -4 -6 -16
-23 -16 -45 0 -15 12 -15 15 4 45 l20 32 49 -26 c42 -24 47 -29 38 -46 -7 -14
-8 -23 -1 -30 7 -7 16 0 27 22 20 38 29 27 -87 93 -37 21 -69 33 -72 28z"/>
<path d="M1230 4568 c-19 -11 -45 -27 -58 -35 -33 -20 -17 -36 18 -18 l28 15
47 -81 c44 -76 46 -81 28 -95 -10 -7 -21 -14 -25 -14 -5 0 -8 -7 -8 -16 0 -12
12 -9 58 17 31 17 63 38 71 45 23 21 4 28 -25 10 -14 -10 -27 -16 -29 -14 -2
2 -24 39 -49 83 l-45 80 24 15 c14 8 25 18 25 22 0 14 -24 8 -60 -14z"/>
<path d="M1050 4455 c0 -8 -6 -15 -14 -15 -21 0 -66 -40 -77 -67 -22 -58 40
-155 109 -169 47 -10 121 44 122 89 0 23 -17 22 -25 -3 -9 -27 -53 -60 -81
-60 -28 0 -82 45 -95 78 -15 39 -1 80 33 98 27 14 32 14 53 0 14 -9 27 -16 30
-16 11 0 4 23 -16 51 -22 32 -39 38 -39 14z"/>
<path d="M3900 4460 c0 -5 5 -10 10 -10 20 0 8 -26 -41 -93 -40 -54 -54 -67
-70 -62 -12 4 -19 2 -19 -7 0 -19 108 -88 137 -88 56 0 112 56 120 121 7 48
-11 77 -71 118 -46 32 -66 38 -66 21z m82 -67 c43 -41 34 -106 -22 -150 -23
-18 -75 -15 -101 6 l-23 18 55 76 c30 42 56 77 58 77 3 0 18 -12 33 -27z"/>
</g>
</svg>
